<svg xmlns="http://www.w3.org/2000/svg" viewBox="0 0 48 48" width="16" height="16"><path d="M45.76 35.2c-1.8-3.23-6.42-7.12-8.33-8.8a1.24 1.24 0 0 1-.1-1.79c3.64-3.91 6.56-8.42 7.56-11.14A1.85 1.85 0 0 0 43.12 11h-3.75c-1.23 0-1.96.44-2.3 1.15-3.03 6.21-5.63 8.9-7.45 10.47-1.02.88-2.61.15-2.61-1.19v-8.28c0-1.14-.94-2.07-2.1-2.07L18.06 11c-.87 0-1.36.98-.84 1.66l1.13 1.63c.43.56.66 1.24.66 1.95L19 23.56c0 1.27-1.54 1.9-2.46 1-3.1-3.02-5.79-9.18-6.75-12.13A2.09 2.09 0 0 0 7.8 11H4.1a2.09 2.09 0 0 0-2.02 2.63c3.38 11.86 10.3 23.14 22.66 24.36a2.08 2.08 0 0 0 2.27-2.07v-3.85c0-1.1.86-2.05 1.97-2.08h.12c3.27 0 6.93 4.76 8.2 6.98A2.07 2.07 0 0 0 39.1 38h4.98a1.9 1.9 0 0 0 1.68-2.8z"/></svg>
