<svg xmlns="http://www.w3.org/2000/svg" viewBox="0 0 48 48" width="16" height="16"><path d="M23.86 8.5c-6.36 0-12.26.45-15.63 1.16a1.5 1.5 0 0 0-.02 0c-2.53.57-4.92 2.39-5.43 5.23a1.5 1.5 0 0 0 0 .02C2.4 17.2 2 20.19 2 24.5c0 4.3.4 7.21.88 9.63.52 2.76 2.85 4.63 5.43 5.2a1.5 1.5 0 0 0 .04.02c3.51.69 9.25 1.15 15.6 1.15s12.1-.46 15.6-1.15a1.5 1.5 0 0 0 .05-.01c2.53-.57 4.92-2.39 5.43-5.23a1.5 1.5 0 0 0 0-.03c.38-2.34.87-5.32.97-9.64a1.5 1.5 0 0 0 0-.03c0-4.32-.5-7.33-.98-9.71-.5-2.77-2.84-4.65-5.42-5.23a1.5 1.5 0 0 0-.12-.02 121.6 121.6 0 0 0-15.62-.95zm-3.7 8.5c.37 0 .75.08 1.11.29l8.6 4.86a2.12 2.12 0 0 1 0 3.7l-8.6 4.87a2.16 2.16 0 0 1-3.23-1.86v-9.72c0-1.23 1-2.12 2.12-2.14z"/></svg>