<svg width="16" height="16" viewBox="0 0 16 16" fill="none" xmlns="http://www.w3.org/2000/svg"><defs><clipPath id="a"><rect rx="0" width="15" height="15" transform="translate(.5 .5)" fill="#fff" fill-opacity="0"/></clipPath></defs><g clip-path="url(#a)"><path d="M1.17 1.25h2.31q.24 0 .43.15.18.15.23.39l.47 2.36H14.04q.27.06.43.29.15.23.1.5l-.93 4.87q-.03.15-.09.3-.05.15-.14.29-.08.13-.19.25-.1.12-.22.22-.13.1-.27.18l-.29.13q-.25.08-.5.1H6.2q-.16 0-.32-.03-.15-.02-.3-.07-.16-.05-.3-.13-.14-.08-.26-.18-.13-.1-.23-.22l-.19-.26q-.09-.14-.14-.3-.06-.13-.09-.28l-.96-4.82a.61.61 0 0 1-.02-.08l-.46-2.33H1.17a.66.66 0 0 1-.67-.66c0-.38.3-.67.67-.67Zm3.7 4.23.82 4.06q.02.1.06.17.05.07.12.12.07.06.14.09.08.02.17.02h5.65q.12 0 .22-.04l.1-.07q.08-.05.12-.12.05-.08.06-.16l.78-4.07H4.88Zm.67 9.24q.13.03.26.03.14 0 .26-.03.12-.02.23-.07l.2-.1.2-.16.15-.2.11-.2q.05-.11.07-.22.03-.13.03-.26 0-.14-.03-.26-.02-.12-.07-.23l-.11-.2-.16-.2q-.08-.08-.19-.15-.1-.07-.2-.11-.11-.05-.23-.07-.12-.03-.26-.03-.13 0-.26.03-.11.02-.22.07-.11.04-.2.1l-.2.16q-.09.1-.15.2-.07.1-.11.2-.05.11-.08.23-.02.12-.02.26l.02.26.08.22.1.2.16.2.2.15q.09.07.2.11.1.05.22.07Zm6.64.03q-.14 0-.26-.03-.12-.02-.23-.07l-.2-.1-.2-.16-.15-.2q-.07-.1-.11-.2-.05-.11-.07-.22-.03-.13-.03-.26 0-.14.03-.26.02-.12.07-.23l.1-.2.17-.2q.08-.08.19-.15.1-.07.2-.11.11-.05.23-.07.12-.03.26-.03.13 0 .26.03.11.02.22.07.11.04.2.1l.2.16q.09.1.15.2.07.1.11.2.05.11.07.23.03.12.03.26 0 .13-.03.26-.02.11-.07.22l-.1.2-.16.2-.2.15q-.09.07-.2.11-.1.05-.22.07-.13.03-.26.03Z" clip-rule="evenodd" fill="#2D3440" fill-rule="evenodd"/></g></svg>