<svg width="15.99" height="16" viewBox="0 0 15.99 16" fill="none" xmlns="http://www.w3.org/2000/svg"><path d="M11.25 1.33H2.3l-.2.02-.17.06q-.1.03-.17.09-.08.05-.14.12-.07.06-.12.14-.06.08-.1.17l-.05.18q-.02.09-.02.19v11.4l.02.2.06.17q.03.1.09.17.05.08.12.14.06.07.14.12.08.06.17.1l.18.05q.09.02.19.02h11.4q.1 0 .19-.02l.18-.06q.08-.03.16-.09.08-.05.15-.12.07-.06.12-.14l.09-.17.05-.18.02-.19V8c0-.37.3-.67.67-.67.37 0 .66.3.66.67v5.7q0 .23-.04.45t-.13.43q-.09.21-.21.4-.13.19-.29.35-.16.16-.35.28-.18.13-.4.21-.2.1-.42.14-.22.04-.45.04H2.3q-.23 0-.45-.04-.22-.05-.43-.14-.21-.08-.4-.2-.19-.13-.35-.3-.16-.15-.28-.34-.13-.19-.22-.4-.08-.2-.13-.43Q0 13.93 0 13.7V2.3q0-.23.04-.45.05-.22.13-.43.1-.21.22-.4Q.5.83.67.67.83.51 1.02.4q.19-.13.4-.22.2-.08.43-.13Q2.07 0 2.3 0h8.95c.38 0 .67.3.67.67 0 .37-.3.66-.67.66Z" clip-rule="evenodd" fill="#FCFCFC" fill-rule="evenodd"/></svg>