<svg width="16" height="16" viewBox="0 0 16 16" fill="none" xmlns="http://www.w3.org/2000/svg">
<g clip-path="url(#clip0_27679_1857)">
<g clip-path="url(#clip1_27679_1857)">
<path d="M-0.000259399 13.7026V2.29639C-0.000259399 1.68748 0.242123 1.10301 0.672592 0.672363C1.10305 0.241828 1.68682 -0.000488281 2.29564 -0.000488281H11.2546C11.6228 -0.000426985 11.9216 0.298352 11.9216 0.666504C11.9216 1.03466 11.6228 1.33343 11.2546 1.3335H2.29564C2.04053 1.3335 1.79545 1.4342 1.61497 1.61475C1.43449 1.79531 1.33372 2.04092 1.33372 2.29639V13.7026C1.33372 13.9581 1.43455 14.2037 1.61497 14.3843C1.79545 14.5648 2.04053 14.6665 2.29564 14.6665H13.698C13.9529 14.6665 14.1973 14.5646 14.3777 14.3843C14.5582 14.2037 14.6599 13.9581 14.6599 13.7026V7.99951C14.6599 7.63136 14.9587 7.33252 15.3269 7.33252C15.695 7.3326 15.9938 7.63141 15.9939 7.99951V13.7026C15.9939 14.3115 15.7515 14.896 15.321 15.3267C14.8906 15.7573 14.3068 15.9995 13.698 15.9995H2.29564C1.68678 15.9995 1.10306 15.7573 0.672592 15.3267C0.242123 14.896 -0.000259399 14.3115 -0.000259399 13.7026Z" fill="#2D3440"/>
</g>
</g>
<defs>
<clipPath id="clip0_27679_1857">
<rect width="16" height="16" fill="white"/>
</clipPath>
<clipPath id="clip1_27679_1857">
<rect width="16" height="16" fill="white"/>
</clipPath>
</defs>
</svg>
