<svg width="16" height="16" viewBox="0 0 16 16" fill="none" xmlns="http://www.w3.org/2000/svg"><defs><clipPath id="a"><rect rx="0" width="15" height="15" transform="translate(.5 .5)" fill="#fff" fill-opacity="0"/></clipPath></defs><g clip-path="url(#a)"><path d="M9.67 1h2.66q.2 0 .4.04.18.04.37.11.18.08.34.19.17.1.3.25.15.14.26.3.1.16.18.34.08.19.12.38.03.2.03.39v9.33q0 .2-.03.4-.04.18-.12.37-.07.18-.18.34-.11.17-.25.3-.14.15-.3.26-.17.1-.35.18-.19.08-.38.12-.19.03-.39.03H9.67a.66.66 0 0 1-.67-.66c0-.38.3-.67.67-.67h2.66q.14 0 .26-.05t.21-.15q.1-.1.15-.21.05-.12.05-.26V3q0-.14-.05-.26-.05-.11-.15-.21-.1-.1-.21-.15-.12-.05-.26-.05H9.67A.66.66 0 0 1 9 1.67c0-.38.3-.67.67-.67Zm-3.8 3.8a.66.66 0 0 1 0-.94.66.66 0 0 1 .93 0l3.3 3.3c.07.05.13.13.17.21l.01.04q.05.1.05.23v.05q0 .13-.05.23l-.01.04a.65.65 0 0 1-.17.22l-3.3 3.3a.66.66 0 0 1-.94 0 .66.66 0 0 1 0-.95l2.2-2.2h-6.4A.66.66 0 0 1 1 7.67c0-.38.3-.67.67-.67h6.39l-2.2-2.2Z" clip-rule="evenodd" fill="#2D3440" fill-rule="evenodd"/></g></svg>