<svg width="137" height="55.72" viewBox="0 0 137 55.72" fill="none" xmlns="http://www.w3.org/2000/svg"><path d="M52.79 37.56a3.43 3.43 0 0 0-1.92.33s-2.67 2.25-15.88-.34c-9.72-1.9-14.77-1.71-14.77-1.71s1.63-11.18 1.19-14.31a.86.86 0 0 0-.31-.59.9.9 0 0 0-.63-.22c-.97 0-1.56.38-1.56.89.09 2.12.01 4.23-.22 6.34a5.33 5.33 0 0 1-5.49 3.5c-4.23-.29-5.12-3.35-5.5-5.44-.37-2.08-.58-7.9.53-10.28 0 0 6.37.22 10.38-3.21 4.01-3.43 3.76-6.4 1.86-7.67-1.89-1.27-6.34-1.05-9.75 2.08a17.35 17.35 0 0 0-4.52 6.26s-5.01-1.07-3.86-6.33c1.21-5.49 8.69-4.85 8.69-4.85l.67.14c.92.19 1.04.22 1.47-.21.52-.52.89-1.86-1.56-1.94C9.16-.08 1.82 1.13.41 6.04c-1.5 5.21 1.28 8.94 5.01 9.52 0 0-2.04 9.03.48 13.5a7.91 7.91 0 0 0 7.65 4.4c1.47 0 4.07-.82 4.81-2.01 0 0-.34 3.2-.64 4.37 0 0-6.18-.08-8.11.89-3.29 1.74-2.6 5.83-1.34 7.28 1.07 1.23 4.29 1.91 6.61.81a8.85 8.85 0 0 0 4.94-6.89c3.76-.2 7.53.22 11.16 1.22 5.49 1.64 13.14 3.18 15.44 3.18 2.3 0 7.12-.66 7.42-2.59.16-1.27-.32-1.93-1.05-2.16Zm12.72-10.18v-6.16c0-.92 2.58-1.45 2.58-.32 0 1.86.04 3.73.08 5.62.09 4.34.19 8.72-.2 12.97-.23 2.54-.65 6.7-3.41 7.91-.42.22-.89.33-1.37.32a2.87 2.87 0 0 1-2.83-2.66 10.53 10.53 0 0 1 3.73-9.4c.41-.27.9-.41 1.38-.38v-3.15a3.3 3.3 0 0 1-3.36.83 3.8 3.8 0 0 1-2.19-2.34c-1.37 2.18-3.71 4.39-6.38 3.23-1.56-.69-2.36-2.4-2.67-4.32l-.69 1.32c-1.07 2.03-2.15 2.83-3.5 2.83-1.53 0-1.48-2.13-1.48-2.13s-.49 1.3-2.87 1.73c-1.75.3-3.11-1.05-3.75-2.69-1.01 1.88-2.46 2.91-3.68 3.06-1.8.23-2.76-2.8-2.76-2.8-.18-.52-.32-1.05-.44-1.59-1.04 2.74-2.81 4.2-4.3 4.39-1.8.23-2.76-2.8-2.76-2.8-1.75-5.36-1.39-13.35.44-20.67 1.84-7.33 4.9-6.09 5.62-5.59.72.5 1 3.46-.38 9.49a34.62 34.62 0 0 1-4.5 10.51c-.18 1.87.04 3.76.63 5.54.6 1.71 2.28.67 3.61-1.79.46-.83.81-1.57 1.1-2.17a48.1 48.1 0 0 1 1.41-15.99c1.85-7.33 4.91-6.09 5.63-5.59.72.5.97 3.46-.36 9.41a34.65 34.65 0 0 1-4.51 10.51 13.7 13.7 0 0 0 .67 5.54c.59 1.71 2.28.67 3.61-1.79l.64-1.22c.2-2.33 1.16-4.53 2.74-6.26 2.79-3.27 5.97-1.53 6.36-.75.49 1.01.65 2.16.44 3.27-.24 2.79-.69 6.93-.72 7.39-.04.47-.05 1.19.94.67.85-.41 2.29-2.82 2.72-3.57-.05-1.47.1-2.94.44-4.37.65-2.49 2.41-5.62 5.5-5.1 2.73.47 1.66 4.37.06 5.58-.85.64-3.02.2-1.62-.85a3.23 3.23 0 0 0 .54-2.8c-.46-.98-1.48 1.53-1.49 1.53-.62 1.79-.87 3.7-.72 5.59.12 1.37.24 3.82 1.42 4.72 1.53 1.21 2.79-1.56 3.31-2.71l.1-.21c.14-.19.32-.34.53-.45.2-.12.43-.18.66-.2-.15-2.37.01-4.75.49-7.08.21-1.16 2.84-1.5 2.62-.19-.48 2.73-1.08 6.21.16 8.82l.07.15c.19.43.48 1.1.89.74.42-.37.78-.82 1.05-1.31a5 5 0 0 0 .77-2.27Zm32.35-2.53c-.49 2.4-1.4 6.81.86 8.05 1 .53-1.41 1.53-2.07 1.19-2.79-1.53-1.92-5.97-1.36-8.79l.16-.85c.23-.83.42-1.68.56-2.53.37-.48.25-.48-.34 0l-.41.3a19.37 19.37 0 0 0-3.56 3.52c-.16.16-.35.28-.56.35.07 2.18.24 4.38.43 6.58.1.7-2.57 1.18-2.57.7-.46-4.93-.94-10.19-.22-15.21l-.73.23c-1.49.47-1.69-.33-.21-.79.37-.11.73-.24 1.09-.39.22-1.33.55-2.64.97-3.91 1.11-3.3 2.33-7.42 5.89-8.67 3.92-1.41 3.35 3.42 2.19 5.74a13.85 13.85 0 0 1-6.39 6.61 45.43 45.43 0 0 0-.49 6.69c1.82-1.94 4.35-3.97 6.48-3.45 1.43.36 1.04 1.71.68 2.92-.1.33-.19.64-.24.92l-.16.79Zm-15.68-6.16a9.52 9.52 0 0 1-5.09-5.37c-1.14-3.41 2.6-5.93 5.59-5.78 2.98.15 4.57 3.24 4.45 6-.05.97-.67 3.17-1.87 2.03a5.68 5.68 0 0 1-1.39-3.25c-.18-1.08-2.76-.44-2.58.7.51 3.27 4.02 6.88 7.03 3.45a6.52 6.52 0 0 0 1.26-5.58A6.6 6.6 0 0 0 86 6.43a9.08 9.08 0 0 0-11.16 3.87c-2.43 4.34 2.45 8.58 5.9 10.13 5.55 2.97 5.76 12.56-1.62 12.62a7.37 7.37 0 0 1-6.84-5.01c-.51-1.51-.25-6.76 1.78-7.16 1.61-.31 1.17-1.79-.4-1.51-3.31.64-4.53 4.93-4.21 7.92.52 4.78 4.97 7.45 9.47 7.42a8.56 8.56 0 0 0 8.57-6.75 8.4 8.4 0 0 0-5.31-9.27Zm11.74-9.7c-.34.77-.7 1.55-.98 2.35-.44 1.39-.8 2.8-1.06 4.24a10.6 10.6 0 0 0 3.56-4.74l.23-.57c.49-1.21 1.16-2.88.6-3.97-.71-1.38-1.65.97-2.16 2.23l-.19.46Zm-79.8-1.32s2.92-2.23 4.31-.84c.32.34.5.78.51 1.25.02.46-.13.91-.43 1.27-.58.77-2.13 3.21-9.49 4.41 0 0 2.32-4.08 5.1-6.09Zm14.59.22c-.6 0-1.17.94-1.78 3.31-.62 2.38-1.45 10.77-1.45 10.77a52.95 52.95 0 0 0 3.64-11.4c.42-2.05.19-2.68-.41-2.68Zm7.45 0c-.55 0-1.12.94-1.73 3.31-.6 2.38-1.49 10.77-1.49 10.77 1.86-3.69 3.22-9.35 3.64-11.4.42-2.05.13-2.68-.42-2.68Zm94.58 31.2c2.41.11 4.6 1.11 5.6 3.68 4.2 10.81-12.96 16.66-19.85 10.33-.41-.37 1.91-1.36 2.43-.89 4.77 4.36 12.96 2.91 15.09-3.62.94-2.91-.05-6.29-2.72-7.75.79 4.57-3.28 7.82-8.75 6.92a.6.6 0 0 1-.26-.08 2.7 2.7 0 0 1-2.04-2.68c-.1-1.94 2.16-3.67 3.68-4.41a16.17 16.17 0 0 1 4.11-1.32 6.16 6.16 0 0 0-2.02-2.42 12.48 12.48 0 0 0-13.53.09c.05 1.36 0 2.71-.14 4.05-.36 3.02-1.14 6.96-3.72 8.95-1.84 1.45-3.56-.1-3.56-2.13A13.17 13.17 0 0 1 109.84 37c.04-1.81.06-3.61.07-5.41.02-3.72.05-7.44.32-11.17.09-1.22 2.72-1.57 2.62-.19-.04.58-.14 1.19-.14 1.79a6.5 6.5 0 0 1 1.66-1.13c1.64-.75 3.83-1.15 4.39 1.1.58 2.4.8 6.19-.69 8.33a6.44 6.44 0 0 1-5.8 2.68c.04.81.12 1.63.12 2.44 5.6-2.68 13.86-3.39 17.34 1.79.4.58.74 1.21 1.01 1.86Zm-22.45-12.46c0-2.94-.33-6.71-3.82-7.03-3.84-.35-5.35 3.69-5.4 6.7-.01.11.02.21.08.3.05.1.13.17.23.21 0 2.82.68 6.49 4.02 6.43 3.72-.05 4.89-3.32 4.89-6.61Zm-63.3 1.35c.48-1.79.81-5.1.89-5.62.03-.16.04-.32.02-.48a1.1 1.1 0 0 0-.16-.44 1.22 1.22 0 0 0-.32-.36 1.3 1.3 0 0 0-.43-.2c-.65-.08-1.8.07-2.94 1.79s-2.51 4.22-1.49 7.08c0 0 .73 1.89 2.17 1.27 1.45-.61 1.77-1.25 2.26-3.04Zm58.85 3.55c-2.17-.89-1.97-4.66-1.83-6.47a.5.5 0 0 0-.22-.48c.27-1.78.97-4.47 2.55-3.14 1.26 1.1 1.29 3.72 1.35 5.23.06 1.05-.08 5.52-1.84 4.86h-.01Zm8.76-6.46a.87.87 0 0 1-.13.15 87.73 87.73 0 0 0-.28 6.72c.29-.12.59-.17.89-.16 3.9.62 3.79-5.93 3.51-8.41-.1-1.01-.4-1.76-.68-1.91a6.8 6.8 0 0 0-1.61 1.36c-.65.68-1.22 1.44-1.7 2.25ZM64.03 45.44a16.3 16.3 0 0 0 1.41-6.99c.01-.52.01-1.07-.04-1.63a8.03 8.03 0 0 0-2.47 4.6 9.47 9.47 0 0 0 0 2.91c.21 1 .48 1.23 1.1 1.11Zm-49.67-2.97s-4.04 2.21-4.46-.79c-.16-.62-.1-1.28.16-1.87.27-.59.73-1.07 1.3-1.36.71-.34 1.67-.78 5.86-.63a5.62 5.62 0 0 1-2.86 4.65Zm94.31 3.32c.59-1.47.94-3.02 1.01-4.6.04-.55.06-1.12.07-1.67a12.98 12.98 0 0 0-2.08 7.06c.05.69.28.64.28.64.25-.47.5-.94.72-1.43Zm15.39.66h.06c4.51.74 5.39-3.11 4.24-6.33-2.26.1-5 1.31-5.44 3.58-.19.96-.35 2.39 1.14 2.75Z" fill="#2D3440" fill-rule="evenodd"/></svg>