<svg width="16" height="16" viewBox="0 0 16 16" fill="none" xmlns="http://www.w3.org/2000/svg"><defs><clipPath id="a"><rect rx="0" width="15" height="15" transform="translate(.5 .5)" fill="#fff" fill-opacity="0"/></clipPath></defs><g clip-path="url(#a)"><path d="M7.33 13.33q-.67 0-1.3-.14-.53-.12-1.04-.33-.5-.22-.96-.52-.5-.33-.94-.77-.44-.44-.77-.94-.3-.46-.52-.96-.21-.5-.33-1.03-.14-.64-.14-1.31t.14-1.3q.12-.53.33-1.04.22-.5.52-.96.33-.5.77-.94.44-.44.94-.77.46-.3.96-.52.5-.21 1.03-.33.64-.14 1.31-.14t1.3.14q.53.12 1.04.33.5.22.96.52.5.33.94.77.44.44.77.94.3.46.52.96.21.5.33 1.03.14.64.14 1.31t-.14 1.3q-.12.53-.33 1.04-.22.5-.52.96-.15.23-.32.45l2.45 2.45c.26.26.26.67 0 .94a.66.66 0 0 1-.94 0l-2.45-2.45q-.22.17-.45.32-.46.3-.96.52-.5.21-1.03.33-.64.14-1.31.14Zm3.36-2.76q.3-.32.55-.69.23-.34.39-.73.16-.38.25-.78.12-.5.12-1.04 0-.53-.12-1.04-.09-.4-.25-.78-.16-.39-.4-.73-.25-.4-.6-.75t-.75-.6q-.34-.24-.73-.4-.38-.16-.78-.25-.5-.12-1.04-.12-.53 0-1.04.12-.4.09-.78.25-.39.16-.73.4-.4.25-.75.6t-.6.75q-.24.34-.4.73-.16.38-.25.78-.12.5-.12 1.04 0 .53.12 1.04.09.4.25.78.16.39.4.73.25.4.6.75t.75.6q.34.24.73.4.38.16.78.25.5.12 1.04.12.53 0 1.04-.12.4-.09.78-.25.39-.16.73-.4.37-.23.69-.54a.69.69 0 0 1 .12-.12Z" clip-rule="evenodd" fill="#2D3440" fill-rule="evenodd"/></g></svg>